<svg id="Layer_1" data-name="Layer 1" xmlns="http://www.w3.org/2000/svg" viewBox="0 0 100.64 163.66"><defs><style>.cls-1,.cls-6{fill:#ffbffb;}.cls-1,.cls-4,.cls-7{fill-rule:evenodd;}.cls-2,.cls-3,.cls-5{fill:none;stroke-linecap:round;stroke-width:0.57px;}.cls-2,.cls-5{stroke:#000;}.cls-2,.cls-3{stroke-miterlimit:22.93;}.cls-3{stroke:#373435;}.cls-5{stroke-linejoin:round;}.cls-7{fill:#fefefe;}</style></defs><title>about1</title><path class="cls-1" d="M50.87,54l6.53,4.52s6.63-7.58,6.7-8.83c.18-3.24-.49-7,.57-10.25,1.75-5.35,7-4.08,8.3-1.22,0,0-8.56-.07,2,0a2.45,2.45,0,0,1,2.57,2.31A2.41,2.41,0,0,1,77,42.19c-.11.15,3,1.17,1,4.29,2.52,2.79-.64,4.48-.86,4.7-3.81,3.61-8.2,11.49-10.4,15-4.78,7.71-18.1.35-19-.46C47.4,65.49,50.87,54,50.87,54Z"/><path class="cls-2" d="M50.87,54l6.53,4.52s6.63-7.58,6.7-8.83c.18-3.24-.49-7,.57-10.25,1.75-5.35,7-4.08,8.3-1.22,0,0-8.56-.07,2,0a2.45,2.45,0,0,1,2.57,2.31A2.41,2.41,0,0,1,77,42.19c-.11.15,3,1.17,1,4.29,2.52,2.79-.64,4.48-.86,4.7-3.81,3.61-8.2,11.49-10.4,15-4.78,7.71-18.1.35-19-.46C47.4,65.49,50.87,54,50.87,54Z"/><path class="cls-2" d="M70.19,38.31c-3,.36-3.79,4.55.12,4.37,1.53-.07,3.51-.23,3.38-.2-.48.1-6.55.42-4.74,3.11,1.14,1.68,5.89,1,5.73,1a9.13,9.13,0,0,0-2.94.81c-2.81,1.12-2.09,3.49.66,3.73.7.06,1.71.09,2.44.09"/><path class="cls-1" d="M57.31,36.67H70.18V50a2.83,2.83,0,0,1-2.83,2.84H60.14A2.84,2.84,0,0,1,57.31,50Z"/><path class="cls-3" d="M57.31,36.67H70.18V50a2.83,2.83,0,0,1-2.83,2.84H60.14A2.84,2.84,0,0,1,57.31,50Z"/><path class="cls-3" d="M60.84,33.73c-2.42-6.3,2.13-6,2.11-9.79,0-2-1.74-2.71-1.86-4.52"/><path class="cls-3" d="M63.66,35.07c-2.51-5.74-.22-5.26.77-8.69"/><path class="cls-4" d="M30.16,108.73h0a2.59,2.59,0,0,0-2.56,2.57v44.38a2.57,2.57,0,0,0,5.13,0V111.3A2.58,2.58,0,0,0,30.16,108.73Z"/><path class="cls-2" d="M30.16,108.73h0a2.59,2.59,0,0,0-2.56,2.57v44.38a2.57,2.57,0,0,0,5.13,0V111.3A2.58,2.58,0,0,0,30.16,108.73Z"/><path d="M14.23,108H46.34a5.28,5.28,0,0,1,5.28,5.28h0a5.27,5.27,0,0,1-5.28,5.28H14.23A5.28,5.28,0,0,1,9,113.27H9A5.29,5.29,0,0,1,14.23,108Z"/><path class="cls-2" d="M14.23,108H46.34a5.28,5.28,0,0,1,5.28,5.28h0a5.27,5.27,0,0,1-5.28,5.28H14.23A5.28,5.28,0,0,1,9,113.27H9A5.29,5.29,0,0,1,14.23,108Z"/><path class="cls-4" d="M31.69,111.49h0a2.58,2.58,0,0,0-1.45,3.32L46.4,156.15a2.56,2.56,0,1,0,4.77-1.87h0L35,113a2.57,2.57,0,0,0-3.32-1.47Z"/><path class="cls-2" d="M31.69,111.49h0a2.58,2.58,0,0,0-1.45,3.32L46.4,156.15a2.56,2.56,0,1,0,4.77-1.87h0L35,113a2.57,2.57,0,0,0-3.32-1.47Z"/><path class="cls-4" d="M28.06,111.49h0a2.57,2.57,0,0,1,1.46,3.32L13.4,156.15a2.56,2.56,0,0,1-4.77-1.87L24.77,113A2.57,2.57,0,0,1,28.06,111.49Z"/><path class="cls-2" d="M28.06,111.49h0a2.57,2.57,0,0,1,1.46,3.32L13.4,156.15a2.56,2.56,0,0,1-4.77-1.87L24.77,113A2.57,2.57,0,0,1,28.06,111.49Z"/><path class="cls-1" d="M84.4,141.19h-21a.67.67,0,0,0-.64.64l-1,14.16H95.33c.63-5.93-3.71-7.73-8.83-10.27C84.51,144.25,84.4,141.19,84.4,141.19Z"/><path class="cls-5" d="M84.4,141.19h-21a.67.67,0,0,0-.64.64l-1,14.16H95.33c.63-5.93-3.71-7.73-8.83-10.27C84.51,144.25,84.4,141.19,84.4,141.19Z"/><rect class="cls-6" x="60.71" y="153.72" width="35.27" height="4.31" rx="0.64"/><rect class="cls-5" x="60.71" y="153.72" width="35.27" height="4.31" rx="0.64"/><path class="cls-4" d="M84.06,141.49l.44,1.76a149.89,149.89,0,0,0-16.79-1.7Z"/><path class="cls-2" d="M84.06,141.49l.44,1.76a149.89,149.89,0,0,0-16.79-1.7Z"/><path class="cls-1" d="M67.45,141.15h-21a.69.69,0,0,0-.64.64l-1,14.16H78.4c.63-5.93-3.71-7.73-8.84-10.27C67.61,144.21,67.45,141.15,67.45,141.15Z"/><path class="cls-5" d="M67.45,141.15h-21a.69.69,0,0,0-.64.64l-1,14.16H78.4c.63-5.93-3.71-7.73-8.84-10.27C67.61,144.21,67.45,141.15,67.45,141.15Z"/><rect class="cls-6" x="43.81" y="153.69" width="35.27" height="4.31" rx="0.64"/><rect class="cls-5" x="43.81" y="153.69" width="35.27" height="4.31" rx="0.64"/><path class="cls-4" d="M67.46,141.45l.43,1.77a128.3,128.3,0,0,0-16.37-1.71Z"/><path class="cls-2" d="M67.46,141.45l.43,1.77a128.3,128.3,0,0,0-16.37-1.71Z"/><path class="cls-1" d="M46.62,16.87v17C46.47,55,59,55.4,57.54,84.5c-.21,4.25-3.68,3.72-4.33,9.43-4.8,1.17-17.65-3.52-22.45-2.36C26,90.41,14.1,100,9.31,98.83c-1.29-5.64-2.86-9-2.82-13.44.19-27,11.39-33.72,11.37-50V16.93C17.83-2.07,46.59-1.42,46.62,16.87Z"/><path class="cls-5" d="M46.62,16.87v17C46.47,55,59,55.4,57.54,84.5c-.21,4.25-3.68,3.72-4.33,9.43-4.8,1.17-17.65-3.52-22.45-2.36C26,90.41,14.1,100,9.31,98.83c-1.29-5.64-2.86-9-2.82-13.44.19-27,11.39-33.72,11.37-50V16.93C17.83-2.07,46.59-1.42,46.62,16.87Z"/><path class="cls-1" d="M63.59,83.84c8.34.49,22.54,4.08,21.92,23.7,0,19.15.08,33,0,33.94.79.25-39.75.2-39.75.2s.29-22.64.16-27.05c-.11-3.71-.29-6.72-5.55-6.7-.93,0-12.64,0-13.62.06-8.08.3-22.2,1-21.94-15,0-2.4.75-4.79,1.75-8.44a3,3,0,0,0,0-.73H53C56.34,83.84,60.4,83.66,63.59,83.84Z"/><path class="cls-5" d="M63.59,83.84c8.34.49,22.54,4.08,21.92,23.7,0,19.15.08,33,0,33.94.79.25-39.75.2-39.75.2s.29-22.64.16-27.05c-.11-3.71-.29-6.72-5.55-6.7-.93,0-12.64,0-13.62.06-8.08.3-22.2,1-21.94-15,0-2.4.75-4.79,1.75-8.44a3,3,0,0,0,0-.73H53C56.34,83.84,60.4,83.66,63.59,83.84Z"/><path class="cls-1" d="M18.13,38.76h28.5a2,2,0,0,1,0,4H18.13a2,2,0,0,1,0-4Z"/><path class="cls-2" d="M18.13,38.76h28.5a2,2,0,0,1,0,4H18.13a2,2,0,0,1,0-4Z"/><line class="cls-2" x1="17.86" y1="15.21" x2="61.7" y2="15.21"/><path class="cls-4" d="M47.26,42.78l.44,1.77a145.11,145.11,0,0,0-16.79-1.7Z"/><path class="cls-2" d="M47.26,42.78l.44,1.77a145.11,145.11,0,0,0-16.79-1.7Z"/><path class="cls-4" d="M46.17,15.14l.44,1.77a145.11,145.11,0,0,0-16.79-1.7Z"/><path class="cls-2" d="M46.17,15.14l.44,1.77a145.11,145.11,0,0,0-16.79-1.7Z"/><path class="cls-2" d="M68.88,141.81V105.43c0-1.72.78-20.35-15.84-21.63"/><path class="cls-7" d="M45.66,27.76a1.67,1.67,0,1,1,1.67-1.69,1.67,1.67,0,0,1-1.67,1.69Z"/><path class="cls-5" d="M45.66,27.76a1.67,1.67,0,1,1,1.67-1.69,1.67,1.67,0,0,1-1.67,1.69Z"/><path class="cls-7" d="M31.63,24.42A1.67,1.67,0,1,1,30,26.09v0A1.68,1.68,0,0,1,31.63,24.42Z"/><path class="cls-5" d="M31.63,24.42A1.67,1.67,0,1,1,30,26.09v0A1.68,1.68,0,0,1,31.63,24.42Z"/><path class="cls-2" d="M45,19.61a3.36,3.36,0,0,1,1.93.3"/><path class="cls-2" d="M32.34,19.61a3.39,3.39,0,0,0-1.93.3"/><path class="cls-4" d="M46.16,26.78a.19.19,0,0,1,.19.19h0a.18.18,0,0,1-.19.19A.19.19,0,0,1,46,27h0a.19.19,0,0,1,.17-.19Z"/><path class="cls-5" d="M46.16,26.78a.19.19,0,0,1,.19.19h0a.18.18,0,0,1-.19.19A.19.19,0,0,1,46,27h0a.19.19,0,0,1,.17-.19Z"/><path class="cls-4" d="M32.24,27a.2.2,0,0,1-.19-.19.21.21,0,0,1,.19-.2.19.19,0,0,1,.19.19h0a.18.18,0,0,1-.19.19Z"/><path class="cls-5" d="M32.24,27a.2.2,0,0,1-.19-.19.21.21,0,0,1,.19-.2.19.19,0,0,1,.19.19h0a.18.18,0,0,1-.19.19Z"/><path class="cls-3" d="M34.27,31c.39.94,1.48,1.06,2.38,1.06"/><path class="cls-4" d="M42,45.28l15.52,5.5-7.58,27-17-6,7.17-25.53a1.43,1.43,0,0,1,1.73-1Z"/><path class="cls-2" d="M42,45.28l15.52,5.5-7.58,27-17-6,7.17-25.53a1.43,1.43,0,0,1,1.73-1Z"/><path class="cls-4" d="M63.4,45.71l-5.72,5-7.58,27,6.86-6L63.79,47.4C64.24,45.91,64.06,45.16,63.4,45.71Z"/><path class="cls-2" d="M63.4,45.71l-5.72,5-7.58,27,6.86-6L63.79,47.4C64.24,45.91,64.06,45.16,63.4,45.71Z"/><path class="cls-1" d="M23.15,49.27c3.51,4.94,4.16,9.91,8.75,14.19.86.8,6.9,2.57,11.47,3.88,1.94.55,5.55-.61,6.45-.33s2.48,1.1,1.19,3.43c-.25.46,3.13.13,3.77.81,1.79,1.93-1,3.37-1,3.37.15,1.52-.89,2.1-2.44,2.7a2,2,0,0,1-1.69,1.37,33.07,33.07,0,0,1-12-1c-1.41-.39-2.9-.86-4.32-1.35-7.27-2.51-13-4-16.52-11.31-.31-.64-1.85-3.74-3-5.91-3-5.8,6.72-14.09,9.31-9.9"/><path class="cls-2" d="M23.15,49.27c3.51,4.94,4.16,9.91,8.75,14.19.86.8,6.9,2.57,11.47,3.88,1.94.55,5.55-.61,6.45-.33s2.48,1.1,1.19,3.43c-.25.46,3.13.13,3.77.81,1.79,1.93-1,3.37-1,3.37.15,1.52-.89,2.1-2.44,2.7a2,2,0,0,1-1.69,1.37,33.07,33.07,0,0,1-12-1c-1.41-.39-2.9-.86-4.32-1.35-7.27-2.51-13-4-16.52-11.31-.31-.64-1.85-3.74-3-5.91"/><path class="cls-2" d="M49.4,74.07a13.23,13.23,0,0,0,4.64.47"/><path class="cls-2" d="M46.9,76.76a13.2,13.2,0,0,0,4.63.47"/><path class="cls-4" d="M43.4,79.91c-7.89-.82-17.13-5.28-21-8-.56-.4-2.19-1.88-.07-.26s6,3,9,4.08A49.45,49.45,0,0,0,48,78.83S46.81,80.26,43.4,79.91Z"/><path class="cls-2" d="M43.4,79.91c-7.89-.82-17.13-5.28-21-8-.56-.4-2.19-1.88-.07-.26s6,3,9,4.08A49.45,49.45,0,0,0,48,78.83S46.81,80.26,43.4,79.91Z"/><line class="cls-2" x1="51.36" y1="70.69" x2="47.41" y2="70.2"/></svg>