<svg id="Слой_1" data-name="Слой 1" xmlns="http://www.w3.org/2000/svg" viewBox="0 0 1935.06 1260.51"><defs><style>.cls-1,.cls-16,.cls-23,.cls-24,.cls-25,.cls-27,.cls-28,.cls-8,.cls-9{fill:none;}.cls-1,.cls-10{stroke:#6562cf;}.cls-1,.cls-10,.cls-13,.cls-16,.cls-2,.cls-23,.cls-24,.cls-25,.cls-26,.cls-27,.cls-28,.cls-8,.cls-9{stroke-miterlimit:10;}.cls-1,.cls-10,.cls-26{stroke-width:6px;}.cls-13,.cls-2,.cls-26,.cls-7{fill:#fff;}.cls-2,.cls-8{stroke:#ffb000;}.cls-13,.cls-2,.cls-23,.cls-25,.cls-27,.cls-8{stroke-width:5px;}.cls-3{fill:#b65a18;}.cls-4{fill:#3f4d79;}.cls-5{fill:#c36f0b;}.cls-6{fill:#dbdaff;}.cls-9{stroke:#000;}.cls-10,.cls-11{fill:#eaeeff;}.cls-12{fill:#c7bfff;}.cls-13,.cls-16,.cls-25{stroke:#3f4d79;}.cls-13,.cls-16,.cls-25,.cls-27,.cls-28{stroke-linecap:round;}.cls-14{fill:#ffb000;}.cls-15{fill:#e2631e;}.cls-16,.cls-28{stroke-width:7px;}.cls-17{fill:#ffc0b7;}.cls-18{fill:#3c4564;}.cls-19{fill:#fe7523;}.cls-20{fill:#ffcfc9;}.cls-21{fill:#fab6ad;}.cls-22{fill:#ceeff7;}.cls-23{stroke:#84d7ec;}.cls-24{stroke:#fe7523;stroke-width:3px;}.cls-26{stroke:#ecbe02;}.cls-27,.cls-28{stroke:#3cbfd4;}</style></defs><title>main</title><g id="Layer_2" data-name="Layer 2"><g id="_3" data-name=" 3"><g id="CHAIR"><polyline class="cls-1" points="176.92 849.77 176.92 1011.34 28.82 1258.97"/><polyline class="cls-1" points="232.82 849.77 232.82 1011.34 380.92 1258.97"/><path class="cls-2" d="M71.71,794.77H338a27.5,27.5,0,0,1,27.5,27.5h0a27.5,27.5,0,0,1-27.5,27.5H71.71a27.5,27.5,0,0,1-27.5-27.5h0A27.5,27.5,0,0,1,71.71,794.77Z"/><line class="cls-1" x1="204.87" y1="852.34" x2="204.87" y2="1259.35"/></g><g id="WOMAN"><g id="RIGHT_HAND" data-name="RIGHT HAND"><path class="cls-3" d="M365,403.45s-5.59,54.77-1.45,55.07c51.28,3.68,110.32,10,119.44,13.3,12.44,3.71,48.63,14.38,53.63,19,6.31,5.84,9.39,25,9.39,27.36S543,533,543,533s-8.7.23-8.82-9.24c-.17-11.22-10.5-13.42-17.49-15.5-2.92-.87-10,.57-10.72,4.9s10.38,8,12.46,10.84c3.16,4.25.86,9.77.81,9.88l-20.31-7.7c-3-1.13-18.26-14.86-25.65-27.74,0,0-144.5,44.79-180.43,22.25-13.58-8.51-11-35.77-5.47-77.61Z"/></g><path id="SKIRT" class="cls-4" d="M148.19,824.25c139.23.16,156.1,1.35,234.9-2.16,0,0-4.25-39.32,8.3-70.75,36.9-92.4,84.23-75.91,84.23-75.91-34.69-19.78-81.26-37.73-188.29-44.27-10.55-27.6-11.5-50.41-13.52-70.76l-177.14-.26S72.85,603.25,49.33,690.32C26.49,774.89,92.34,824.19,148.19,824.25Z"/><g id="LEGS"><g id="LOWER_LEG" data-name="LOWER LEG"><path id="LEG" class="cls-3" d="M521.15,857.53c6.15-33.26-1.07-89.27-51.26-80.93s-41.32,40.4-41.27,61.64c.14,61.13-20.59,92-27.37,144.6-9.36,72.65,5.7,160.38,19.23,218.25l-11.09,24.55s19.27,18,63.73,21,12.78-16.43,12.78-16.43c-21.74-21.4-33.66-36.82-28.06-77.54C461.85,1123.5,511.69,908.72,521.15,857.53Z"/><path id="SHOE" class="cls-4" d="M413.91,1214.76s-22.79,44.51,6,44.59c12.31,0,108-.28,108-.28s3.73-22.85-27.84-27.11c-4.39-.59-14.43-2-14.43-2s11.59,13.93-14.27,11.65C428.12,1237.77,427.7,1210.19,413.91,1214.76Z"/></g><g id="UPPER_LEG" data-name="UPPER LEG"><path id="LEG-2" class="cls-5" d="M447,678.65c45.83-22.08,51.64,35.74,44.52,62.72C488.61,752.52,458,841,448.62,870.91s-80.07,205.18-87.33,309.22c-.08,1.13-10.66,28.06-36.16-49.31-9.46-28.73,15.8-25.5,14.37-38.15-6.9-60.84-16.85-190.05-2.78-260C342.4,804.43,379,711.4,447,678.65Z"/><path id="SHOE-2" class="cls-4" d="M338.74,1096.36S291,1100.85,305,1126c6,10.74,57.13,99.33,57.13,99.33s19.74-8,8-37.56c-1.64-4.12-7.76-18.87-7.76-18.87s-7,16.54-16.71-7.52C330.87,1124.87,348.39,1116,338.74,1096.36Z"/></g></g><path id="BLOUSE" class="cls-6" d="M292.13,550.61s11.83-64.44,33.16-126.8c0,0,7.58-3.8,59.07-30,0,0,1.24-73.45-36.91-108.31-25.19-23-76.78-40-76.78-40l-99.16-5.29c-19.12,1.13-67.09,6.92-109.89,40.76C19.31,314.41.24,352.29.24,352.29s56,13.14,96.76,61.54L68.48,550.61S101.47,569,178.15,571C271.81,573.4,292.13,550.61,292.13,550.61Z"/><g id="LEFT_HAND" data-name="LEFT HAND"><path class="cls-5" d="M339.3,472.47c-.31,11.57-29,2.79-29.19,7.26a5.73,5.73,0,0,0,1,4.41c1.32,1.85,2.19,4.27.35,7.84-2.46,4.78,5.74,6,3.25,13.71s1.36,6.73,1.84,14.65c.53,8.95-37.15,16.72-48.4,12.36a7.94,7.94,0,0,1-2.9-2.06c-15.7.56-241.72,8.08-259.59-17.64C-14.86,483.51,27,361.78,27,361.78c39.88,14.78,73.08,52.06,73.08,52.06L89.81,456.89c62.48,3.24,132.28,24,168.19,36,.2-6.77,1.91-11.05,3-15.57.89-3.69,5.18-10.81,20.17-11.18S339.47,466.43,339.3,472.47Z"/><path class="cls-3" d="M27,361.78s38.59,10.82,73.08,52.05L96.27,430s-33.34-30.25-77.69-39.6Z"/></g><g id="HEAD"><path id="HAIR" class="cls-4" d="M373.32,124.71c-6.66,15.36-1.54,20.49-.52,25.09,1,4.44.19,30.51-36.44,29.93a16.07,16.07,0,0,0-2.93,14.48,12.51,12.51,0,0,0,15.43,8.58A9.59,9.59,0,0,0,355.44,191a7.26,7.26,0,0,0-9-5h0a5.43,5.43,0,0,0-3.72,6.69,3.93,3.93,0,0,0,4.84,2.71h0a2,2,0,0,1,1.1,3.85,7.94,7.94,0,0,1-9.8-5.45,9.41,9.41,0,0,1,6.46-11.64h0a11.28,11.28,0,0,1,13.92,7.75A13.59,13.59,0,0,1,350,206.64a16.64,16.64,0,0,1-4.54.63,16.46,16.46,0,0,1-15.82-12,20,20,0,0,1,2.07-15.78c-41.25-2.53-160.15,60.68-160.15,60.68s-25.6,7.42-33.29-9c0,0-40.46,2.11-48.65-23-3.25-9.95-2.4-17.32-.18-22.6a16.8,16.8,0,0,1-7.2,2.2h-1A16.49,16.49,0,0,1,64.8,172.3,13.59,13.59,0,0,1,77.59,158a11.29,11.29,0,0,1,11.89,10.61,9.42,9.42,0,0,1-8.86,9.93,7.93,7.93,0,0,1-8.37-7.46,2,2,0,0,1,4-.23,3.93,3.93,0,0,0,4.15,3.7h0a5.43,5.43,0,0,0,5.1-5.71A7.25,7.25,0,0,0,77.84,162h0a9.56,9.56,0,0,0-9,10.09v0A12.49,12.49,0,0,0,82,183.83c5.73-.33,11.88-5.73,15.09-12.07C92.24,165.7,81.69,150,86,132.9c5.11-20.31,25.1-24.34,25.1-24.34s-18-37.85,16-56.07c9.05-4.85,17.19-6.52,24.3-6.34a18.35,18.35,0,0,1-2.21-2.9A10.67,10.67,0,0,1,152.14,29a8.1,8.1,0,0,1,6.29-1.24,8.38,8.38,0,0,1,5.37,3.84,7.55,7.55,0,0,1-2.1,10.11,2,2,0,0,1-2.25-3.31,3.51,3.51,0,0,0,.94-4.7,4.35,4.35,0,0,0-2.8-2,4.16,4.16,0,0,0-3.2.64,6.61,6.61,0,0,0-1.79,8.88c1.17,1.91,5.63,7.93,13.47,5.1h0a26.58,26.58,0,0,1,1.64-10.74A17,17,0,0,1,172,29.33a17.85,17.85,0,0,1,8.12-4.06,36.33,36.33,0,0,1,13.19-.2s1.47-12.38,15.37-17.41c21.15-7.66,41,6.42,41,6.42S267.88-7.18,294,2.55C316.64,11,319.22,27,319.51,31.06a14.22,14.22,0,0,0,9.29-2.53c6.74-4.91,4.25-12,3.33-14a6.63,6.63,0,0,0-8.36-3.5,4.13,4.13,0,0,0-2.32,2.3,4.36,4.36,0,0,0,.11,3.45A3.49,3.49,0,0,0,326,18.63a2,2,0,1,1,1.48,3.72h0a7.55,7.55,0,0,1-9.55-3.94,8.34,8.34,0,0,1-.17-6.59,8.1,8.1,0,0,1,4.55-4.51,10.65,10.65,0,0,1,13.48,5.56c2.55,5.65,2.67,13.58-4.62,18.9-.24.18-.49.35-.75.52,3.86.57,7.82,1.79,10.14,4.32,5.63,6.15,0,14.34,0,14.34s14.08,2.56,18.56,13.32-2.69,16.39,5.51,24.07S380,109.34,373.32,124.71Z"/><path id="HOOP" class="cls-7" d="M235.27,172.89s.27-76.87,61.22-75.84,35.45,82.49,35.45,82.49Z"/><g id="NECK"><path class="cls-5" d="M235.32,170.33s-11.95,38.21-63.81,69.87c0,0,58.41,25.35,106,6.92Z"/><path class="cls-3" d="M277.55,247.11a105.25,105.25,0,0,1-33.74,6.62c-25.88-22.55-12.6-72.95-9.32-80.84.24-.58.59-1.31,1-2.17Z"/></g><path id="HEAD-2" class="cls-5" d="M235.27,172.89c-4.05,9.74,17.68,74.23,42.28,74.23,28.67,0,82.7-90.16,42.23-111.67S239.12,163.59,235.27,172.89Z"/></g></g><g id="TABLET"><g id="TABLE"><path class="cls-7" d="M190.07,532.84H660.3v26.29H190.07A13.16,13.16,0,0,1,176.92,546h0a13.15,13.15,0,0,1,13.15-13.15h0Z"/><path class="cls-8" d="M660.3,559.14H190.07A13.15,13.15,0,0,1,176.92,546h0a13.15,13.15,0,0,1,13.15-13.15H660.3"/></g><g id="TABLET-2"><path class="cls-9" d="M505.53,532H278.87a7.24,7.24,0,0,1-6.54-10.35l69.75-147.06a20.66,20.66,0,0,1,18.7-11.83H587.44A7.24,7.24,0,0,1,594,373.13L524.23,520.19A20.71,20.71,0,0,1,505.53,532Z"/><path class="cls-10" d="M506.3,532H279.64a7.24,7.24,0,0,1-6.54-10.35l69.75-147.06a20.71,20.71,0,0,1,18.7-11.83H588.21a7.24,7.24,0,0,1,6.54,10.35L525,520.19A20.7,20.7,0,0,1,506.3,532Z"/><path class="cls-7" d="M281.59,528.3l68.35-144.13a20.28,20.28,0,0,1,18.33-11.59H579.4a7.1,7.1,0,0,1,6.41,10.15L521,519.43a13.06,13.06,0,0,1-11.72,7.47Z"/><polygon class="cls-11" points="387.61 448.65 387.61 528.3 433.92 528.3 387.61 448.65"/><polygon class="cls-9" points="556.68 531.61 437.77 531.61 391.46 451.97 510.37 451.97 556.68 531.61"/><polygon class="cls-12" points="548.77 531.61 438.35 531.61 392.04 451.97 502.46 451.97 548.77 531.61"/><polygon class="cls-7" points="559.77 531.61 449.35 531.61 403.04 451.97 513.46 451.97 559.77 531.61"/><polygon class="cls-1" points="556.68 532.02 437.77 532.02 391.46 452.38 510.37 452.38 556.68 532.02"/></g></g></g></g><g id="Layer_2-2" data-name="Layer 2"><g id="_2" data-name=" 2"><g id="CHAIR-2" data-name="CHAIR"><path class="cls-13" d="M1414.35,1254.26h0a6.21,6.21,0,0,1-6.24-6l27.77-386.67h38.61l-53.9,386.67A6.21,6.21,0,0,1,1414.35,1254.26Z"/><path class="cls-13" d="M1654.26,1254.26h0a6.21,6.21,0,0,1-6.23-6l-53.91-386.67h38.61l27.77,386.67A6.21,6.21,0,0,1,1654.26,1254.26Z"/><path class="cls-13" d="M1765.54,1254.26h0a6.21,6.21,0,0,1-6.24-6l-53.9-386.67H1744l27.77,386.67A6.21,6.21,0,0,1,1765.54,1254.26Z"/><polygon class="cls-13" points="1779.81 778.68 1768.66 823.18 1732.02 823.18 1743.16 778.68 1779.81 778.68"/><polygon class="cls-13" points="1636.76 778.68 1625.61 823.18 1588.96 823.18 1600.1 778.68 1636.76 778.68"/><path class="cls-14" d="M1390.53,820.13h383.1a22.8,22.8,0,0,1,22.86,22.75h0a22.81,22.81,0,0,1-22.86,22.76h-383.1a22.81,22.81,0,0,1-22.86-22.76h0A22.8,22.8,0,0,1,1390.53,820.13Z"/><path class="cls-14" d="M1931.23,465.94l-69.47,277.41a50.78,50.78,0,0,1-49.32,38.35H1559.26c-14,0-23.77-21.08-18.94-41l69.21-284.87c3.28-13.54,11.81-22.52,21.35-22.52H1906C1917.12,433.34,1935,450.16,1931.23,465.94Z"/></g><g id="CHARACTER"><g id="LEGS-2" data-name="LEGS"><g id="LEFT_LEG" data-name="LEFT LEG"><g id="FOOT"><path class="cls-15" d="M1132.22,1187.33c0,7,21.85,28.56,14.49,64.56,0,0-53.92.08-80.37.24-31.45.19-98.33.19-98.33.19s-6.49-28.68,28-32.66,78.11-40.21,78.11-40.21Z"/><path class="cls-16" d="M1149,1255.18c-31.44.19-181,.19-181,.19"/><path class="cls-17" d="M1075.1,1179.45c3.41-9.46,8.32-40.36,8.32-40.36l55.4,4.84s-9.19,20.66-7.63,42.38C1131.73,1193.64,1071.35,1189.83,1075.1,1179.45Z"/></g><path id="PANT" class="cls-18" d="M1634.23,793.87c-61.6,25.06-350.38,9.23-350.38,9.23s-5.91,225.2-114.5,341.77c0,0-74.91-2.5-95.44-7.77,0,0,56.76-337,97.35-403.23,21.43-35,262.82-88.53,314.86-93a292.49,292.49,0,0,0,49.14,26.22c47.31,19.87,95.83,27,132.32,29.08C1673.18,728.7,1674.07,777.67,1634.23,793.87Z"/></g><g id="RIGHT_LEG" data-name="RIGHT LEG"><g id="FOOT-2"><path class="cls-19" d="M1174.07,1187.33c0,7,21.86,28.56,14.5,64.56,0,0-53.92.08-80.38.24-31.44.19-98.32.19-98.32.19s-6.49-28.68,27.95-32.66,78.11-40.21,78.11-40.21Z"/><path class="cls-16" d="M1190.89,1255.18c-31.45.19-181,.19-181,.19"/><path class="cls-20" d="M1117,1179.45c3.41-9.46,8.32-40.36,8.32-40.36l63.58,6.87s-11.54,10.53-15.8,40.35C1172,1193.58,1113.21,1189.83,1117,1179.45Z"/></g><path id="PANT-2" class="cls-4" d="M1678.82,820.36c-61.61,25.09-350.39,9.24-350.39,9.24s6,196.12-130.45,316.72c0,0-68.26-4.89-88.82-10.17,0,0,87.43-318.42,106.65-375.79,10.51-31.39,278.7-91.94,319.42-93.3,67.16,28.21,136.69,30.64,170.94,29.72C1712.28,717.41,1732.42,798.56,1678.82,820.36Z"/></g></g><g id="LEFT_HAND-2" data-name="LEFT HAND"><path class="cls-17" d="M1502.71,555.84c-69.87,13.87-237.73,7.93-308.1-6.15a106.21,106.21,0,0,1-12,8c-9.19,5.25-26.88,9.5-31.08,9.27s-29.94-4.17-29.94-4.17-.92-2.89,2.85-6.72,31.38-.78,21.28-9.14c-4.49-3.74-26.86,4.67-36.59,14s-14.29,1.94-14.29,1.94,9.31-17.27,12.65-20.4,25.52-16.4,40.55-18.43c10.88-1.46,37.06.55,50.91,3.88,51.34-12.14,149.85-27.6,220-27,9.32-38.62,20.64-85.89,23.65-99.87l49.86,32.51Z"/><path class="cls-21" d="M1442.59,401l-3.14,13.87s12.91,32.57,54.59,43.32l-1.59-24.7Z"/></g><g id="T-SHIRT"><path class="cls-22" d="M1746.27,487.82s-3.73-.24-10-.88c-7.14,52.53-13.43,96.65-13.43,106.34,0,26,5.1,102.23,5.1,102.23s-137.68,15.38-242.69-55.27c0,0,24.34-32.61,11.71-135.36-8.39-68.36-4.5-71.36-4.5-71.36s-25.73-13.35-62.21-42.12c0,0,18.93-93.18,49.14-111.46s77.09-26.81,108.22-38.47S1666,217.69,1666,217.69c12.63,10.31,72.59,39.49,87.46,57C1774.7,294,1803.75,370.7,1746.27,487.82Z"/><path class="cls-23" d="M1625.22,457.17s12.87-21,28.4-97.77"/><path class="cls-23" d="M1491.31,431.58c-1.47-18.55.51-53.27,2.92-72.57"/></g><g id="RIGHT_HAND-2" data-name="RIGHT HAND"><path class="cls-20" d="M1736.24,486.94S1681.67,624.21,1657,626.48c-80.47,7.41-214.94-68.86-244-69.76l-12.74-.4c-7.14,4.17-16.23,7.73-23.92,5.49-15.49-4.52-27.91-15.66-38.18-10.88s-22.12,14-28.63,13.21c-13.63-1.63-21.49-8.84-21.49-8.84s8.48-9.2,17-17.95c-6.07,2.36-15.31,8.87-20,11.1-7.14,3.37-10.82-2.65-10.82-2.65s15.94-14,21.44-17.34c5.32-3.2,20.25-6.56,27.78-6.72,9.12-1.22,59.12-8,84.89-5.32,29.54-1.08,88.82,1,193.23,20.56l29.93-76.4S1676.9,480.69,1736.24,486.94Z"/><path class="cls-21" d="M1736.24,487s-4.93,12.41-12.5,29.83c-24.82-7.3-65.06-22.79-93.93-52l1.65-4.21S1676.91,480.69,1736.24,487Z"/></g><g id="HEAD-2-2" data-name="HEAD"><g id="NECK-2" data-name="NECK"><path class="cls-20" d="M1611.47,126.14s4.08,57.93,54.54,91.55c0,0-26.59,57.92-87.91,61.93S1563,249.34,1563,249.34s-16-52.68-18.72-65.24Z"/><path class="cls-21" d="M1611.28,156.22c-3.06,26.49-26.54,64.47-55.67,68.36-4.57-15.5-9.84-33.76-11.29-40.48l63.76-55,2,3.92S1611.94,150.63,1611.28,156.22Z"/></g><path id="HEAD-2-3" data-name="HEAD-2" class="cls-20" d="M1606.67,130.29s.95,18.16-1.5,23.23c-11.28,23.37-46.66,50.2-74.16,50.2-21.29,0-46.23-64.56-48.47-88.35s.9-61.48,58.6-66,61.76,55.19,61.76,55.19Z"/><g id="HAIR-2" data-name="HAIR"><path class="cls-19" d="M1438.35,91.15s-10.73-21.22,7.21-36.8c21.16-18.4,40.56-9.88,51.4-21.54s33.5-36.58,67.18-32.33c30.2,3.82,39,24.7,39,24.7s18.68-7.84,34.9,13.21-23,108.73-23,108.73-10.54-34.94-12.19-42.46c-3.68-16.84-37-12.86-34.26-45.78,0,0-9,22.44-43.28,22-10.2-.12-23.39-2.9-36.49-4.83-7.25,12.77-7.45,27.74-6.33,39.36C1482.54,115.37,1451.9,114.9,1438.35,91.15Z"/><path class="cls-24" d="M1602.22,25.18s15.13-14.32,31.19-.63"/><path class="cls-24" d="M1568.64,57s-6.28,30.21-40.49,32.19"/></g><g id="HEADPHONES"><path class="cls-25" d="M1612,95.05l-10.89-81.79a10.79,10.79,0,0,0-11.5-9.33"/><path class="cls-25" d="M1621,154.37c2.92,14.31,28.34,53.44-15.85,128.12s13.27,96.92-15.8,148.08-92.07,48.35-88.81,134c2.14,56.32-48.6,64-45.67,0"/><path class="cls-25" d="M1528.42,487.83c15.17-12.33,30.51-82.13,6.17-121.84s-48.12-93.24-12.25-160.68"/><path class="cls-26" d="M1600.25,96.85l21.46-3.23a11.94,11.94,0,0,1,13.6,10l5.44,35.8a11.91,11.91,0,0,1-10,13.54l-21.46,3.23a12,12,0,0,1-13.61-10l-5.43-35.8A11.9,11.9,0,0,1,1600.25,96.85Z"/></g></g></g><g id="TABLE-2" data-name="TABLE"><path class="cls-7" d="M985.78,585h549.34c5.84,0,10.58,6.75,10.58,15.08v1.39c0,8.32-4.74,15.07-10.58,15.07H1121.56"/><path class="cls-27" d="M991.9,582.92h543.22c5.84,0,10.58,6.75,10.58,15.08v1.38c0,8.33-4.74,15.07-10.58,15.07H1123.6"/><polygon class="cls-7" points="1509.31 1260.97 1405.22 615.47 1441.06 615.47 1544.12 1259.95 1509.31 1260.97"/><polygon class="cls-22" points="1447.11 648.25 1408.46 633.89 1405.21 615.47 1441.07 615.47 1447.11 648.25"/><polyline class="cls-28" points="1507.26 1256.9 1405.22 615.47 1441.06 615.47 1542.08 1255.89"/></g><g id="LAPTOP"><path class="cls-2" d="M1378,556.35H1068.85a20,20,0,0,1-18.79-13.05L978.82,350a15.86,15.86,0,0,1,14.94-21.34H1307a22.53,22.53,0,0,1,21.17,14.76l68.62,186.12A20,20,0,0,1,1378,556.35Z"/><path class="cls-2" d="M1364.55,556.35H1065.79a19.41,19.41,0,0,1-18.16-13.05L978.78,350c-3.68-10.34,3.75-21.34,14.45-21.34h302.71a21.82,21.82,0,0,1,20.42,14.71l66.35,186.13C1387.33,542.63,1378,556.35,1364.55,556.35Z"/><path class="cls-2" d="M1065.15,556.35H1510a10.25,10.25,0,0,1,10.28,10.23v.53A10.25,10.25,0,0,1,1510,577.34h-444.8a10.26,10.26,0,0,1-10.28-10.23v-.53A10.26,10.26,0,0,1,1065.15,556.35Z"/></g></g></g></svg>